<?xml version="1.0" standalone="no"?><!DOCTYPE svg PUBLIC "-//W3C//DTD SVG 1.1//EN" "http://www.w3.org/Graphics/SVG/1.1/DTD/svg11.dtd"><svg t="1592984902361" class="icon" viewBox="0 0 1024 1024" version="1.1" xmlns="http://www.w3.org/2000/svg" p-id="2114" xmlns:xlink="http://www.w3.org/1999/xlink" width="200" height="200"><defs><style type="text/css"></style></defs><path d="M512 56.888889a455.111111 455.111111 0 1 0 0 910.222222A455.111111 455.111111 0 0 0 512 56.888889z m0 796.444444c-188.245333 0-341.333333-153.088-341.333333-341.333333s153.088-341.333333 341.333333-341.333333 341.333333 153.088 341.333333 341.333333-153.088 341.333333-341.333333 341.333333z" fill="#1296db" p-id="2115"></path><path d="M683.235556 455.224889H476.558222l74.922667-73.557333c22.072889-22.300444 22.072889-58.311111 0-80.611556s-57.799111-22.243556-79.815111 0l-170.666667 168.789333a57.287111 57.287111 0 0 0-16.497778 42.268445c0.056889 0.625778-0.056889 1.308444-0.056889 1.934222 0 15.132444 5.973333 29.639111 16.554667 40.334222l170.666667 168.789334c22.072889 22.243556 57.799111 22.243556 79.815111 0s22.072889-58.311111 0-80.611556l-74.922667-73.614222h206.677334a56.32 56.32 0 0 0 56.32-56.32v-1.024a56.32 56.32 0 0 0-56.32-56.32z" fill="#1296db" p-id="2116"></path></svg>